# xmcd
# Track frame offsets:
# 150
# 6385
# 20653
# 39691
# 53878
# 77317
# 91486
# 107328
# 123291
# 139354
# 157027
#
# Disc length: 2313 seconds
# Revision: 0
# Processed by: cddbd v1.5.2PL0 Copyright (c) Steve Scherf et al.
# Submitted via: VisiTrax 2.10.2.252 - For more info visit www.synapsa.com
#
DISCID=8909070b
DTITLE=Krissy Matthews - Blues boy
DYEAR=2005
DGENRE=Blues
TTITLE0=Blues for Robert part 1
TTITLE1=Blues boys
TTITLE2=School day blues
TTITLE3=Love and attention
TTITLE4=Blues for Robert par 2
TTITLE5=Never seen a fool like you
TTITLE6=All i wanna do
TTITLE7=W-H-Y
TTITLE8=Poket blues
TTITLE9=Jammin´
TTITLE10=Funking the blues
EXTD=2005
EXTT0=
EXTT1=
EXTT2=
EXTT3=
EXTT4=
EXTT5=
EXTT6=
EXTT7=
EXTT8=
EXTT9=
EXTT10=
PLAYORDER=
